# xmcd CD database file
#
# Track frame offsets:
#	150
#	50618
#	116391
#	197312
#	250394
#
# Disc length: 4412 seconds
#
# Revision: 0
# Processed by: cddbd v1.5.2PL0 Copyright (c) Steve Scherf et al.
# Submitted via: CDex 1.51
#
DISCID=3b113a05
DTITLE=Reto Feuerstein - Positive Gefühle
DYEAR=2008
DGENRE=New Age
TTITLE0=Herrliche Wolkenbilder ziehen vorbei
TTITLE1=Ein entspannter, verträumter Tag am Meer
TTITLE2=Wundervolles, harmonisches Shangri-La
TTITLE3=Ein heller Sonnenstrahl am Horizont
TTITLE4=Eine traumhafte Oase für meine Seele
EXTD=YEAR: 2008
EXTT0=
EXTT1=
EXTT2=
EXTT3=
EXTT4=
PLAYORDER=
